<svg aria-hidden="true" style="position:absolute;width:0;height:0" xmlns="http://www.w3.org/2000/svg" overflow="hidden"><defs><symbol id="icon-envelope" viewBox="0 0 43 32"><path d="M38.667 0H4C1.794 0 0 1.794 0 4v24c0 2.206 1.794 4 4 4h34.667c2.206 0 4-1.794 4-4V4c0-2.206-1.794-4-4-4zm0 2.667c.181 0 .353.038.511.103L21.334 18.236 3.49 2.77a1.32 1.32 0 01.511-.103h34.667zm0 26.666H4A1.334 1.334 0 012.667 28V5.587L20.46 21.008a1.335 1.335 0 001.748 0L40.001 5.587V28c0 .736-.598 1.333-1.333 1.333z"/></symbol><symbol id="icon-smartphone" viewBox="0 0 20 32"><path d="M17 0H3C1.346 0 0 1.346 0 3v26c0 1.654 1.346 3 3 3h14c1.654 0 3-1.346 3-3V3c0-1.654-1.346-3-3-3zM3 2h14a1 1 0 011 1v21H2V3a1 1 0 011-1zm14 28H3a1 1 0 01-1-1v-3h16v3a1 1 0 01-1 1z"/><path d="M4.707 27.478c.391.365.391.956 0 1.321s-1.024.365-1.414 0c-.391-.365-.391-.956 0-1.321s1.024-.365 1.414 0z"/></symbol><symbol id="icon-facebook" viewBox="0 0 32 32"><path d="M18.422 11.142h1.328V8.829a17.317 17.317 0 00-1.935-.102c-1.915 0-3.226 1.204-3.226 3.418v2.037h-2.113v2.585h2.113v6.505h2.59v-6.505h2.027l.322-2.585h-2.35v-1.781c.001-.747.202-1.259 1.243-1.259z"/></symbol><symbol id="icon-instagram" viewBox="0 0 32 32"><path d="M23.258 13.004c-.034-.773-.159-1.304-.338-1.765a3.557 3.557 0 00-.841-1.29 3.589 3.589 0 00-1.287-.838c-.463-.179-.992-.304-1.764-.338-.779-.037-1.026-.046-3.001-.046s-2.222.009-2.998.043c-.773.034-1.304.159-1.764.338a3.557 3.557 0 00-1.29.841 3.589 3.589 0 00-.838 1.287c-.179.463-.304.992-.338 1.764-.037.779-.045 1.026-.045 3.001s.008 2.222.043 2.998c.034.773.159 1.304.338 1.765.185.489.472.926.841 1.29.364.369.804.656 1.287.838.463.179.992.304 1.765.338.776.034 1.023.043 2.998.043s2.222-.008 2.998-.043c.773-.034 1.304-.159 1.764-.338a3.72 3.72 0 002.128-2.128c.179-.463.304-.992.338-1.765.034-.776.043-1.023.043-2.998s-.003-2.222-.037-2.998zm-1.309 5.938c-.031.71-.151 1.094-.25 1.35a2.409 2.409 0 01-1.381 1.381c-.256.099-.642.219-1.35.25-.767.034-.997.043-2.938.043s-2.174-.008-2.938-.043c-.71-.031-1.094-.15-1.35-.25a2.228 2.228 0 01-.835-.543 2.264 2.264 0 01-.543-.835c-.099-.256-.219-.642-.25-1.35-.034-.767-.043-.997-.043-2.938s.008-2.174.043-2.938c.031-.71.151-1.094.25-1.35.117-.315.301-.602.546-.835.236-.242.52-.426.835-.543.256-.099.642-.219 1.35-.25.767-.034.997-.043 2.938-.043 1.944 0 2.174.008 2.938.043.71.031 1.094.151 1.35.25.315.116.602.301.835.543.241.236.426.52.543.835.099.256.219.642.25 1.35.034.767.043.997.043 2.938s-.009 2.168-.043 2.935z"/><path d="M16.027 12.265a3.737 3.737 0 000 7.472c2.063 0 3.737-1.674 3.737-3.736s-1.674-3.736-3.737-3.736zm0 6.16a2.424 2.424 0 110-4.849 2.424 2.424 0 010 4.849zM20.784 12.117a.872.872 0 11-1.744 0 .872.872 0 011.744 0z"/></symbol><symbol id="icon-linkedin" viewBox="0 0 32 32"><path d="M23.269 23.273v-.001h.004v-5.335c0-2.61-.562-4.62-3.613-4.62-1.467 0-2.451.805-2.853 1.568h-.042v-1.324h-2.893v9.711h3.012v-4.809c0-1.266.24-2.49 1.808-2.49 1.545 0 1.568 1.445 1.568 2.572v4.728h3.009zM8.967 13.562h3.016v9.711H8.967v-9.711zM10.474 8.727c-.964 0-1.747.782-1.747 1.747s.782 1.763 1.747 1.763c.964 0 1.747-.799 1.747-1.763s-.783-1.747-1.747-1.747z"/></symbol><symbol id="icon-twitter" viewBox="0 0 32 32"><path d="M23.273 11.49a6.248 6.248 0 01-1.718.471 2.967 2.967 0 001.312-1.648 5.963 5.963 0 01-1.891.722 2.981 2.981 0 00-5.158 2.039c0 .236.02.464.069.68a8.439 8.439 0 01-6.146-3.119 2.985 2.985 0 00.917 3.985 2.943 2.943 0 01-1.347-.367v.033a2.996 2.996 0 002.389 2.93 2.992 2.992 0 01-.782.098 2.64 2.64 0 01-.565-.051 3.01 3.01 0 002.786 2.077 5.991 5.991 0 01-3.697 1.272 5.59 5.59 0 01-.714-.041 8.393 8.393 0 004.575 1.338c5.487 0 8.487-4.545 8.487-8.485 0-.132-.005-.259-.011-.385a5.95 5.95 0 001.495-1.548z"/></symbol></defs></svg>